<svg width="21" height="26" viewBox="0 0 21 26" fill="none" xmlns="http://www.w3.org/2000/svg">
<path d="M11.8162 1.68187C14.3177 2.91707 16.2662 3.87919 18.931 2.58198C19.3339 2.38586 19.8094 2.41106 20.1893 2.64866C20.5693 2.88625 20.8 3.30276 20.8 3.75085V16.1541C20.8 16.6515 20.5162 17.1053 20.069 17.323C16.194 19.2092 13.0723 17.6358 10.6453 16.4125C10.3664 16.2719 10.0965 16.1359 9.83587 16.0103C8.49284 15.3634 7.38286 14.9537 6.25367 15.008C5.26579 15.0554 4.07999 15.4727 2.6 16.8231V24.7C2.6 25.418 2.01797 26 1.3 26C0.582031 26 0 25.418 0 24.7V3.86248C0 3.51519 0.138964 3.18233 0.385907 2.93813C2.36412 0.981879 4.24364 0.0983308 6.12885 0.00772683C7.95716 -0.0801425 9.57719 0.596613 10.9642 1.26467C11.2561 1.40529 11.5395 1.54525 11.8162 1.68187Z" fill="#808080"/>
</svg>
