<svg width="30" height="28" viewBox="0 0 30 28" fill="none" xmlns="http://www.w3.org/2000/svg">
<g clip-path="url(#clip0_105_392)">
<path fill-rule="evenodd" clip-rule="evenodd" d="M2.00488 5.71463C0.902439 4.00732 0.27561 1.96585 0 0C2.00412 0.280356 3.9358 0.942743 5.69024 1.95122L5.62683 0.695122C7.02195 0.897561 8.84146 1.72683 10.9585 2.99024V1.79024C12.5186 2.40629 13.9534 3.30139 15.1927 4.43171L15.661 3.43659C16.9618 4.11626 18.3041 5.30569 19.6878 7.00488L20.1756 5.96341C21.2683 6.84634 22.178 8.13902 22.8268 10.0341L23.5585 9.30244C24.1829 10.1585 24.6683 11.4976 24.9317 13.6024L25.8927 13.0756C26.1073 14.2415 25.8049 15.9244 25.2512 17.8561L26.3732 17.8098C25.8512 19.6293 25.1244 21.1976 24.0512 22.3512C25.5756 23.8537 27.6049 25.0756 29.9537 26.1244C29.8927 26.9732 29.5951 27.5878 29.0732 28.0122C26.3902 26.178 23.8244 24.2 21.3366 22.1585C19.2098 20.3244 17.152 18.4431 15.1634 16.5146C11.6463 13.1343 8.34158 9.53962 5.26829 5.75122C4.35772 4.61789 3.46911 3.46667 2.60244 2.29756C2.65122 3.04146 5.1 6.53415 6.83902 8.70976C11.3854 14.4122 16.6976 19.4073 22.0293 24.3512C20.6366 25.4927 19.2317 26.1585 17.8098 26.3171V25.2707C16.1024 25.8415 14.4463 26.2463 13.0366 25.861L13.5756 24.8854C12.0426 24.8188 10.549 24.3793 9.22439 23.6049L10 22.761C8.3439 22.2732 6.94634 21.4756 6.00488 20.1463L7.01707 19.6732C5.60976 18.5366 4.23171 17.3634 3.44146 15.661L4.47073 15.1732C3.22683 13.7268 2.24634 12.3171 1.83902 10.9902L3.07073 10.939C1.80976 8.9878 0.97561 7.19024 0.731707 5.59512L2.00976 5.71463H2.00488Z" fill="#65DB1C"/>
</g>
<defs>
<clipPath id="clip0_105_392">
<rect width="29.9707" height="28" fill="white"/>
</clipPath>
</defs>
</svg>
