<svg width="80" height="92" viewBox="0 0 80 92" fill="none" xmlns="http://www.w3.org/2000/svg">
<path d="M0.301159 52.7053C21.9886 52.8636 39.5349 70.1098 39.6988 91.4062C18.0114 91.2479 0.465146 74.0017 0.301159 52.7053ZM79.6988 52.7053C79.5349 74.0017 61.9886 91.2479 40.3012 91.4062C40.4651 70.1098 58.0114 52.8636 79.6988 52.7053ZM29.2761 49.4229L29.3446 48.7835L28.8106 49.1418C27.036 50.3327 24.9605 51.0124 22.6667 51.0124C16.694 51.0124 11.8556 46.2507 11.8556 40.3949C11.8556 36.1532 14.4021 32.5422 18.0383 30.8408L18.619 30.5691L18.0383 30.2974C14.4021 28.596 11.8556 24.985 11.8556 20.7433C11.8556 14.8875 16.694 10.1258 22.6667 10.1258C24.9623 10.1258 27.0807 10.8065 28.8078 11.9944L29.3456 12.3644L29.2761 11.7153L29.1889 10.9016C29.1977 5.05307 34.0328 0.3 40 0.3C45.9672 0.3 50.8023 5.05306 50.8111 10.9016L50.7239 11.7153L50.6554 12.3547L51.1894 11.9964C52.9641 10.8055 55.0395 10.1258 57.3333 10.1258C63.306 10.1258 68.1444 14.8875 68.1444 20.7433C68.1444 24.985 65.5979 28.596 61.9618 30.2974L61.381 30.5691L61.9618 30.8408C65.5979 32.5422 68.1444 36.1532 68.1444 40.3949C68.1444 46.2507 63.306 51.0124 57.3333 51.0124C55.0377 51.0124 52.9194 50.3317 51.1922 49.1438L50.6544 48.7738L50.7239 49.4229L50.8111 50.2366C50.8023 56.0851 45.9672 60.8382 40 60.8382C34.0328 60.8382 29.1977 56.0851 29.1889 50.2366L29.2761 49.4229ZM51.4111 30.5691C51.4111 24.372 46.294 19.3516 40 19.3516C33.706 19.3516 28.5889 24.372 28.5889 30.5691C28.5889 36.7662 33.706 41.7866 40 41.7866C46.294 41.7866 51.4111 36.7662 51.4111 30.5691Z" fill="#8EFF48" stroke="#62AC34" stroke-width="0.6"/>
</svg>
