<svg width="26" height="26" viewBox="0 0 26 26" fill="none" xmlns="http://www.w3.org/2000/svg">
<path fill-rule="evenodd" clip-rule="evenodd" d="M11.9786 0.423068C12.5427 -0.141023 13.4573 -0.141023 14.0214 0.423068L22.688 9.08974L25.5769 11.9786C26.141 12.5427 26.141 13.4573 25.5769 14.0214C25.0128 14.5855 24.0983 14.5855 23.5342 14.0214L23.1111 13.5983V23.1111C23.1111 24.7066 21.8177 26 20.2222 26H15.8889C15.0911 26 14.4444 25.3533 14.4444 24.5556V20.2222H11.5556V24.5556C11.5556 25.3533 10.9089 26 10.1111 26H5.77778C4.18229 26 2.88889 24.7066 2.88889 23.1111V13.5983L2.46582 14.0214C1.90173 14.5855 0.987159 14.5855 0.423068 14.0214C-0.141023 13.4573 -0.141023 12.5427 0.423068 11.9786L3.31196 9.08974L11.9786 0.423068Z" fill="#808080"/>
</svg>
